<svg width="105" height="74" viewBox="0 0 105 74" fill="none" xmlns="http://www.w3.org/2000/svg">
<g opacity="0.95">
<path opacity="0.95" d="M27.1168 28.4549C27.1168 28.4549 26.896 28.4549 27.1168 28.4549C25.5711 31.1019 22.7007 33.0871 18.7262 33.7489C9.45233 35.0723 1.50334 28.6755 0.178504 19.4111C-1.14633 10.1467 5.03622 1.76465 14.3101 0.220581C10.5564 3.30871 7.02347 8.60265 8.1275 16.9847C9.45233 26.2491 17.8429 31.7636 27.1168 28.4549ZM21.5966 10.5879C18.7262 10.5879 16.2973 8.16149 16.2973 5.29394C16.2973 2.42639 18.7262 0 21.5966 0C24.4671 0 26.896 2.42639 26.896 5.29394C26.896 8.16149 24.4671 10.5879 21.5966 10.5879Z" fill="#3D402E"/>
<path opacity="0.95" d="M37.7154 20.2934C37.7154 27.1314 39.9235 32.646 42.1315 33.7489C35.7281 33.7489 28.2208 28.4549 28.2208 20.2934C28.2208 12.1319 35.5073 6.83801 42.1315 6.83801C39.4818 7.94092 37.7154 13.676 37.7154 20.2934ZM57.1463 20.2934C57.1463 28.4549 49.8597 33.7489 43.2355 33.7489C45.4436 32.646 47.6516 26.9109 47.6516 20.2934C47.6516 13.676 45.8852 7.94092 43.2355 6.83801C49.8597 6.83801 57.1463 12.1319 57.1463 20.2934Z" fill="#3D402E"/>
<path opacity="0.95" d="M59.5752 13.4554L67.9658 6.83801V33.7489H59.5752V13.4554ZM83.4221 13.2349V33.9694H75.0315V11.4702H69.2906L73.4859 8.1615C76.1356 5.95569 80.1101 6.61743 82.0973 9.2644C82.9805 10.3673 83.4221 11.6908 83.4221 13.2349ZM99.0993 13.2349V33.9694H90.7087V11.4702H84.9678L88.9423 8.38208C90.0463 7.49976 91.3711 7.0586 92.696 7.0586C96.4497 7.0586 99.0993 9.70556 99.0993 13.2349Z" fill="#3D402E"/>
<path opacity="0.95" d="M30.8705 39.7045H39.2611V67.4977C39.2611 71.027 36.3906 73.674 33.0785 73.674C32.4161 73.674 31.5329 73.4534 30.8705 73.2328V39.7045ZM40.1443 47.4249C47.2101 44.9985 54.9382 48.9689 57.1463 56.0275C59.5752 63.0861 55.6007 70.8064 48.5349 73.0122C45.6644 73.8946 42.5731 73.8946 39.9235 73.0122H40.1443C47.2101 70.5858 50.9637 62.8655 48.3141 55.8069C47.2101 51.8365 44.1188 48.7484 40.1443 47.4249Z" fill="#3D402E"/>
<path opacity="0.95" d="M68.4074 60.2185C68.4074 67.0565 70.6155 72.5711 72.8235 73.674C66.4202 73.674 58.9128 68.38 58.9128 60.2185C58.9128 52.057 66.1994 46.7631 72.8235 46.7631C70.3947 47.866 68.4074 53.6011 68.4074 60.2185ZM88.0591 60.2185C88.0591 68.38 80.7725 73.674 74.1483 73.674C76.3564 72.5711 78.5645 66.8359 78.5645 60.2185C78.5645 53.6011 76.798 47.866 74.1483 46.7631C80.5517 46.7631 88.0591 52.057 88.0591 60.2185Z" fill="#3D402E"/>
<path opacity="0.95" d="M90.7087 44.1162C90.7087 41.6898 92.696 39.9251 94.904 39.9251C97.1121 39.9251 99.3201 41.6898 99.3201 44.1162C99.3201 46.5425 97.3329 48.3072 95.1248 48.3072C92.696 48.3072 90.7087 46.322 90.7087 44.1162ZM104.84 69.2624L100.866 72.3505C99.7617 73.2328 98.4369 73.674 97.1121 73.674C93.5792 73.674 90.9295 70.8064 90.9295 67.4977V51.1747H99.3201V69.0418L104.84 69.2624Z" fill="#3D402E"/>
</g>
</svg>
