<svg width="131" height="134" viewBox="0 0 131 134" fill="none" xmlns="http://www.w3.org/2000/svg">
<path d="M66.253 107.616C65.5551 107.309 65.027 106.676 64.8474 105.906L60.4289 88.3165C60.1635 87.233 59.1549 86.5266 58.1635 86.7252C58.0473 86.7569 57.9311 86.7886 57.8228 86.8376L38.0042 95.7851C37.0907 96.1975 36.7209 97.3603 37.1722 98.3598C37.3901 98.8424 37.7782 99.248 38.2435 99.4529L47.4482 103.492L53.6259 117.175C55.0108 120.243 57.6882 122.499 60.7499 123.17L70.0516 125.195C70.9197 125.384 71.7634 124.899 72.0407 124.027L72.7185 121.895C73.4888 119.473 73.3132 116.731 72.2006 114.308L71.6327 113.05C70.5201 110.585 68.5794 108.64 66.253 107.616Z" fill="#949F86"/>
<path d="M78.5264 53.1082C72.4193 39.5813 69.4457 25.9624 70.7779 17.561C70.9804 16.352 70.1522 15.2207 68.9468 15.0123C68.0446 14.8723 67.1403 15.2805 66.6845 16.0793L48.4739 47.2218C40.7055 51.1624 38.1745 60.1734 42.3571 69.4377C46.5396 78.7019 54.981 82.7821 63.0658 79.5425L98.4875 86.4716C99.6825 86.7075 100.851 85.9292 101.081 84.7307C101.244 83.836 100.852 82.9182 100.083 82.4213C92.8817 77.8726 84.6334 66.6352 78.5264 53.1082Z" fill="#949F86"/>
<path d="M108.836 88.0943C98.3804 92.8146 83.3665 74.5281 74.5224 54.9387C65.6783 35.3492 61.8834 11.9749 72.3386 7.25466C82.7938 2.53442 97.8077 20.8209 106.652 40.4103C115.496 59.9998 119.291 83.3741 108.836 88.0943ZM74.1605 11.29C68.4525 13.867 68.8526 31.681 78.5264 53.1082C88.2002 74.5353 101.297 86.617 107.005 84.04C112.713 81.463 112.313 63.649 102.639 42.2219C92.9655 20.7947 79.8684 8.71302 74.1605 11.29Z" fill="#F5F5F5"/>
<path d="M108.836 88.0944C98.3804 92.8146 83.3665 74.5282 74.5224 54.9387C65.6783 35.3492 61.8834 11.9749 72.3386 7.25469C82.7938 2.53446 97.8077 20.8209 106.652 40.4103C115.496 59.9998 119.291 83.3741 108.836 88.0944ZM73.6893 10.4391C67.9814 13.0161 68.0155 32.012 77.6893 53.4391C87.3631 74.8663 101.481 87.5161 107.189 84.9392C112.897 82.3622 113.363 63.3663 103.689 41.9391C94.0155 20.512 79.3973 7.86216 73.6893 10.4391Z" fill="black"/>
<path d="M93.5005 59.4504C92.723 59.8014 91.7384 59.3073 91.3058 58.349C90.8731 57.3907 91.1537 56.3255 91.9312 55.9744C94.2505 54.9273 94.7402 50.952 93.0169 47.135C91.2937 43.3179 87.988 41.0561 85.6687 42.1032C84.8912 42.4542 83.9066 41.9602 83.474 41.0019C83.0413 40.0435 83.3219 38.9783 84.0994 38.6273C88.5774 37.2313 93.8038 40.4444 95.8166 45.8515C98.5556 50.9697 97.5224 57.0089 93.5005 59.4504Z" fill="black"/>
<path d="M99.8077 86.3316C99.3932 86.5187 98.9189 86.5732 98.4772 86.499L63.0932 79.5529L41.6177 89.2486C32.7449 93.2544 22.2814 89.2662 18.2442 80.324C14.207 71.3818 18.1444 60.9148 27.0172 56.9089L48.4739 47.2218L66.6931 16.0982C67.3065 15.0458 68.6628 14.6844 69.7138 15.3046C70.5115 15.7655 69.8495 16.5341 69.7138 17.4391C68.3731 25.8216 71.5823 39.9122 77.6894 53.4391C83.7964 66.9661 92.625 78.382 99.8077 82.9391C100.848 83.5868 101.406 84.4469 100.765 85.4888C100.539 85.8418 100.195 86.1341 99.8077 86.3316ZM28.1893 59.9391C21.5395 62.9414 18.17 72.2515 21.1893 78.9391C24.2087 85.6268 33.0395 89.3339 39.6893 86.3316L62.1893 76.4391C63.3981 77.6603 62.6515 76.3649 63.0932 76.4391L94.1893 82.4298C87.323 74.8561 78.5628 64.2899 74.5053 54.9008C70.1738 45.6582 67.8429 33.0708 66.6931 22.9391L51.1893 48.9391C50.9529 49.3196 51.1893 48.9391 49.6894 49.9391L28.1893 59.9391Z" fill="black"/>
<path d="M76.1247 117.459C75.7291 117.637 75.2822 117.702 74.8593 117.62L63.8161 115.763C60.1813 115.146 57.0848 112.758 55.5538 109.367L48.7625 94.3246L37.924 90.2092C36.7924 89.7622 36.73 89.0816 37.1893 87.9391C37.6196 86.8326 39.0748 86.53 40.1893 86.9391L50.1893 90.9391C50.7372 91.148 51.4498 91.9087 51.6893 92.4391L58.6893 107.939C59.6045 109.966 61.9893 111.881 64.1893 112.233L74.1893 114.439L74.6893 112.233C75.3064 110.586 75.4164 108.049 74.6893 106.439L73.6893 104.439C72.9623 102.829 71.3517 102.057 69.6893 101.439C67.4792 100.612 66.214 98.5782 65.6893 96.2608L62.1893 79.9391C54.6118 81.9918 46.2916 78.1525 42.3571 69.4377C37.9863 59.7566 40.7126 50.7259 49.1332 46.9241C50.2447 46.4224 50.6685 45.8064 51.1732 46.9241C51.6778 48.0419 51.3008 49.4374 50.1893 49.9392C42.7671 53.2901 42.6661 61.8503 45.1893 67.4392C47.7126 73.028 54.7859 79.688 62.1893 76.3456C63.3008 75.8438 64.6787 76.5044 65.1833 77.6222C66.1285 79.7158 65.3717 78.4392 64.9847 76.7604L69.4798 96.2607C69.6797 97.1055 70.2924 97.8096 71.1142 98.1228C73.8722 99.1584 76.1092 101.25 77.3049 103.949L77.9293 105.332C79.1439 108.022 79.2436 111.056 78.2151 113.801L77.3101 116.217C77.0855 116.774 76.671 117.212 76.1247 117.459Z" fill="black"/>
</svg>
