<svg width="100" height="104" viewBox="0 0 100 104" fill="none" xmlns="http://www.w3.org/2000/svg">
<path d="M42.3322 92.4773C61.7432 98.5541 82.4052 87.7446 88.482 68.3336C94.5588 48.9225 83.7493 28.2606 64.3383 22.1838C44.9273 16.107 24.2653 26.9165 18.1885 46.3275C12.1117 65.7385 22.9212 86.4005 42.3322 92.4773Z" fill="#949F86"/>
<path d="M36.8306 85.0796C16.5392 78.7272 5.24869 57.1219 11.6011 36.8306C17.9535 16.5392 39.5438 5.244 59.8352 11.5964C80.1266 17.9488 91.4218 39.5391 85.0694 59.8305C78.702 80.1172 57.1313 91.4021 36.8306 85.0796ZM59.2377 13.5051C40.7134 7.70585 19.7861 19.0532 13.9869 37.5775C8.18771 56.1018 19.0532 76.8946 37.5775 82.6938C56.1018 88.493 75.945 77.3138 81.7442 58.7895C87.5237 40.2755 77.7526 19.3342 59.2377 13.5051Z" fill="black"/>
<path d="M36.8306 85.0796C25.1799 81.4323 21.8557 62.6498 28.3018 42.0589C34.748 21.468 48.1995 7.95373 59.8352 11.5964C71.4709 15.2391 74.3526 33.8666 67.9064 54.4575C61.4603 75.0484 48.4813 88.727 36.8306 85.0796ZM59.2377 13.5051C49.7135 10.5234 36.4607 24.6515 30.7694 42.8314C25.078 61.0112 28.0533 79.7122 37.5775 82.6938C47.1017 85.6755 60.2098 72.0096 65.9011 53.8297C71.5925 35.6498 68.7619 16.4867 59.2377 13.5051Z" fill="black"/>
<path d="M36.8306 85.0797C35.9471 84.8031 35.4533 83.8592 35.7299 82.9757L58.396 12.9052C58.6726 12.0217 58.9517 11.3198 59.8353 11.5964C60.7188 11.873 61.2126 12.8169 60.936 13.7004L48.9959 49.5935L38.294 83.7784C38.0174 84.6619 37.7142 85.3563 36.8306 85.0797Z" fill="black"/>
<path d="M83.0315 60.7726L12.7529 38.7712C11.8694 38.4946 11.2846 37.8414 11.4493 37.3152C11.6141 36.789 12.4669 36.5859 13.3505 36.8625L83.629 58.8639C84.5125 59.1405 85.0973 59.7936 84.9326 60.3199C84.7678 60.8461 83.915 61.0492 83.0315 60.7726Z" fill="black"/>
<path d="M82.342 39.5995L25.393 21.7711C24.518 21.4972 23.9402 20.8462 24.1049 20.32C24.2697 19.7938 25.1155 19.5885 25.9905 19.8624L82.9395 37.6909C83.8145 37.9648 84.3923 38.6158 84.2276 39.142C84.0628 39.6682 83.217 39.8734 82.342 39.5995Z" fill="black"/>
<path d="M70.3915 77.7726L13.4425 59.9442C12.5675 59.6703 11.9897 59.0193 12.1544 58.4931C12.3192 57.9669 13.165 57.7616 14.04 58.0356L70.989 75.864C71.864 76.1379 72.4418 76.7889 72.2771 77.3151C72.1123 77.8413 71.2665 78.0466 70.3915 77.7726Z" fill="black"/>
</svg>
